<svg width="32" height="32" viewBox="0 0 32 32" fill="none" xmlns="http://www.w3.org/2000/svg">
<path d="M19.3333 24C19.8889 24 20.3609 23.8053 20.7493 23.416C21.1387 23.0275 21.3333 22.5555 21.3333 22C21.3333 21.4444 21.1387 20.9724 20.7493 20.584C20.3609 20.1946 19.8889 20 19.3333 20C18.7778 20 18.3058 20.1946 17.9173 20.584C17.528 20.9724 17.3333 21.4444 17.3333 22C17.3333 22.5555 17.528 23.0275 17.9173 23.416C18.3058 23.8053 18.7778 24 19.3333 24ZM11.6667 23C11.9333 23.2666 12.2445 23.4 12.6 23.4C12.9556 23.4 13.2667 23.2666 13.5333 23L20.3333 16.2C20.6 15.9333 20.7333 15.6222 20.7333 15.2666C20.7333 14.9111 20.6 14.6 20.3333 14.3333C20.0667 14.0666 19.7502 13.9333 19.384 13.9333C19.0169 13.9333 18.7 14.0666 18.4333 14.3333L11.6667 21.1C11.4 21.3666 11.2667 21.6835 11.2667 22.0506C11.2667 22.4168 11.4 22.7333 11.6667 23ZM12.6667 17.3333C13.2222 17.3333 13.6942 17.1386 14.0827 16.7493C14.472 16.3608 14.6667 15.8888 14.6667 15.3333C14.6667 14.7777 14.472 14.3057 14.0827 13.9173C13.6942 13.528 13.2222 13.3333 12.6667 13.3333C12.1111 13.3333 11.6391 13.528 11.2507 13.9173C10.8613 14.3057 10.6667 14.7777 10.6667 15.3333C10.6667 15.8888 10.8613 16.3608 11.2507 16.7493C11.6391 17.1386 12.1111 17.3333 12.6667 17.3333ZM16 29.3333C13.1778 29.3333 10.6947 28.3502 8.55068 26.384C6.40579 24.4168 5.33334 21.7555 5.33334 18.4C5.33334 16.2888 6.13334 14 7.73334 11.5333C9.33334 9.06663 11.7556 6.39996 15 3.53329C15.1333 3.42218 15.2889 3.33329 15.4667 3.26663C15.6445 3.19996 15.8222 3.16663 16 3.16663C16.1778 3.16663 16.3556 3.19996 16.5333 3.26663C16.7111 3.33329 16.8667 3.42218 17 3.53329C20.2445 6.39996 22.6667 9.06663 24.2667 11.5333C25.8667 14 26.6667 16.2888 26.6667 18.4C26.6667 21.7555 25.5942 24.4168 23.4493 26.384C21.3053 28.3502 18.8222 29.3333 16 29.3333ZM16 26.6666C18.2445 26.6666 20.1387 25.9 21.6827 24.3666C23.2276 22.8333 24 20.8444 24 18.4C24 16.8222 23.3445 15.0164 22.0333 12.9826C20.7222 10.9497 18.7111 8.68885 16 6.19996C13.2889 8.68885 11.2778 10.9497 9.96668 12.9826C8.65557 15.0164 8.00001 16.8222 8.00001 18.4C8.00001 20.8444 8.77201 22.8333 10.316 24.3666C11.8609 25.9 13.7556 26.6666 16 26.6666Z" fill="#00A3FF"/>
</svg>
