<svg width="32" height="32" viewBox="0 0 32 32" fill="none" xmlns="http://www.w3.org/2000/svg">
<path d="M16 16C16.7333 16 17.3613 15.7386 17.884 15.216C18.4067 14.6933 18.6676 14.0657 18.6667 13.3333C18.6667 12.6 18.4053 11.972 17.8827 11.4493C17.36 10.9266 16.7325 10.6657 16 10.6666C15.2667 10.6666 14.6387 10.928 14.116 11.4506C13.5933 11.9733 13.3325 12.6008 13.3333 13.3333C13.3333 14.0666 13.5947 14.6946 14.1173 15.2173C14.64 15.74 15.2676 16.0008 16 16ZM16 29.3333C12.4222 26.2888 9.75023 23.4613 7.98401 20.8506C6.21779 18.24 5.33423 15.8231 5.33334 13.6C5.33334 10.2666 6.40579 7.61107 8.55068 5.63329C10.6956 3.65551 13.1787 2.66663 16 2.66663C18.8222 2.66663 21.3058 3.65551 23.4507 5.63329C25.5956 7.61107 26.6676 10.2666 26.6667 13.6C26.6667 15.8222 25.7831 18.2391 24.016 20.8506C22.2489 23.4622 19.5769 26.2897 16 29.3333Z" fill="#00A3FF"/>
</svg>
