<svg width="32" height="32" viewBox="0 0 32 32" fill="none" xmlns="http://www.w3.org/2000/svg">
<g clip-path="url(#clip0_734_88)">
<path d="M17.3333 16C17.3333 16.7333 16.7333 17.3333 16 17.3333C15.2667 17.3333 14.6667 16.7333 14.6667 16C14.6667 15.2667 15.2667 14.6667 16 14.6667C16.7333 14.6667 17.3333 15.2667 17.3333 16ZM13.3333 16L9.33333 12V14.6667H4V17.3333H9.33333V20L13.3333 16ZM18.6667 16L22.6667 20V17.3333H28V14.6667H22.6667V12L18.6667 16ZM27.3333 4.66667L25.8933 6.10667C28.4267 8.66667 30 12.1467 30 16C30 19.8667 28.4267 23.3333 25.8933 25.8933L27.3333 27.3333C30.2133 24.4133 32 20.4133 32 16C32 11.5867 30.2133 7.58667 27.3333 4.66667ZM7.58667 12C9.08 8.85333 12.2933 6.66667 16 6.66667C19.7067 6.66667 22.92 8.85333 24.4267 12H27.3333C25.6533 7.33333 21.2267 4 16 4C10.7733 4 6.34667 7.33333 4.66667 12H7.58667ZM6.10667 6.10667L4.66667 4.66667C1.78667 7.58667 0 11.5867 0 16C0 20.4133 1.78667 24.4133 4.66667 27.3333L6.10667 25.8933C3.57333 23.3333 2 19.8667 2 16C2 12.1467 3.57333 8.66667 6.10667 6.10667ZM24.4267 20C22.92 23.1467 19.72 25.3333 16 25.3333C12.28 25.3333 9.08 23.1467 7.58667 20H4.66667C6.34667 24.6667 10.7733 28 16 28C21.2267 28 25.6533 24.6667 27.3333 20H24.4267Z" fill="#00A3FF"/>
</g>
<defs>
<clipPath id="clip0_734_88">
<rect width="32" height="32" fill="white"/>
</clipPath>
</defs>
</svg>
