<svg width="32" height="32" viewBox="0 0 32 32" fill="none" xmlns="http://www.w3.org/2000/svg">
<path d="M18.6667 7.33337C18.6667 5.74208 18.0345 4.21595 16.9093 3.09073C15.7841 1.96552 14.258 1.33337 12.6667 1.33337C11.0754 1.33337 9.54925 1.96552 8.42403 3.09073C7.29881 4.21595 6.66667 5.74208 6.66667 7.33337V17.3334C5.74513 18.3776 5.11218 19.6444 4.83042 21.0084C4.54867 22.3723 4.62788 23.7862 5.06021 25.1101C5.49255 26.4341 6.26303 27.6222 7.29544 28.557C8.32786 29.4918 9.58643 30.1409 10.9467 30.44C11.5074 30.568 12.0787 30.6439 12.6533 30.6667C14.202 30.6765 15.7202 30.2366 17.0237 29.4004C18.3272 28.5642 19.3599 27.3676 19.9966 25.9558C20.6333 24.5441 20.8465 22.9779 20.6105 21.4474C20.3744 19.9168 19.6991 18.4877 18.6667 17.3334V7.33337ZM16 26.8134C14.9391 27.754 13.5481 28.2347 12.1328 28.1497C10.7175 28.0647 9.39397 27.4209 8.45334 26.36C7.51271 25.2992 7.03202 23.9081 7.11704 22.4928C7.20206 21.0775 7.84581 19.754 8.90667 18.8134C9.03266 18.6899 9.13288 18.5426 9.20155 18.3801C9.27021 18.2176 9.30594 18.0431 9.30667 17.8667V7.33337C9.30667 6.44932 9.65786 5.60147 10.283 4.97635C10.9081 4.35123 11.756 4.00004 12.64 4.00004C13.5241 4.00004 14.3719 4.35123 14.997 4.97635C15.6222 5.60147 15.9733 6.44932 15.9733 7.33337V17.92C15.9741 18.0965 16.0098 18.271 16.0785 18.4335C16.1471 18.596 16.2474 18.7432 16.3733 18.8667C16.9183 19.3932 17.3449 20.0298 17.6246 20.7341C17.9042 21.4384 18.0306 22.1942 17.9953 22.9511C17.96 23.7081 17.7638 24.4488 17.4197 25.124C17.0757 25.7992 16.5917 26.3933 16 26.8667V26.8134ZM14 20.3734V7.33337C14 6.97975 13.8595 6.64061 13.6095 6.39057C13.3594 6.14052 13.0203 6.00004 12.6667 6.00004C12.3131 6.00004 11.9739 6.14052 11.7239 6.39057C11.4738 6.64061 11.3333 6.97975 11.3333 7.33337V20.3734C10.9303 20.6061 10.5952 20.9402 10.3613 21.3425C10.1274 21.7448 10.0028 22.2013 10 22.6667C10 23.374 10.281 24.0522 10.7811 24.5523C11.2812 25.0524 11.9594 25.3334 12.6667 25.3334C13.3739 25.3334 14.0522 25.0524 14.5523 24.5523C15.0524 24.0522 15.3333 23.374 15.3333 22.6667C15.3305 22.2013 15.206 21.7448 14.9721 21.3425C14.7382 20.9402 14.403 20.6061 14 20.3734ZM26 3.33337H22C21.6464 3.33337 21.3072 3.47385 21.0572 3.7239C20.8071 3.97395 20.6667 4.31309 20.6667 4.66671C20.6667 5.02033 20.8071 5.35947 21.0572 5.60952C21.3072 5.85956 21.6464 6.00004 22 6.00004H26C26.3536 6.00004 26.6928 5.85956 26.9428 5.60952C27.1929 5.35947 27.3333 5.02033 27.3333 4.66671C27.3333 4.31309 27.1929 3.97395 26.9428 3.7239C26.6928 3.47385 26.3536 3.33337 26 3.33337Z" fill="#00A3FF"/>
</svg>
