<svg width="32" height="32" viewBox="0 0 32 32" fill="none" xmlns="http://www.w3.org/2000/svg">
<path d="M16 21.3334C17.6667 21.3334 19.0836 20.7503 20.2507 19.584C21.4169 18.4169 22 17 22 15.3334C22 13.6667 21.4169 12.2498 20.2507 11.0827C19.0836 9.91649 17.6667 9.33337 16 9.33337C14.3333 9.33337 12.9164 9.91649 11.7493 11.0827C10.5831 12.2498 10 13.6667 10 15.3334C10 17 10.5831 18.4169 11.7493 19.584C12.9164 20.7503 14.3333 21.3334 16 21.3334ZM16 18.9334C15 18.9334 14.1502 18.5832 13.4507 17.8827C12.7502 17.1832 12.4 16.3334 12.4 15.3334C12.4 14.3334 12.7502 13.4832 13.4507 12.7827C14.1502 12.0832 15 11.7334 16 11.7334C17 11.7334 17.8502 12.0832 18.5507 12.7827C19.2502 13.4832 19.6 14.3334 19.6 15.3334C19.6 16.3334 19.2502 17.1832 18.5507 17.8827C17.8502 18.5832 17 18.9334 16 18.9334ZM16 25.3334C12.7556 25.3334 9.8 24.4276 7.13333 22.616C4.46666 20.8054 2.53333 18.3778 1.33333 15.3334C2.53333 12.2889 4.46666 9.86093 7.13333 8.04937C9.8 6.23871 12.7556 5.33337 16 5.33337C19.2444 5.33337 22.2 6.23871 24.8667 8.04937C27.5333 9.86093 29.4667 12.2889 30.6667 15.3334C29.4667 18.3778 27.5333 20.8054 24.8667 22.616C22.2 24.4276 19.2444 25.3334 16 25.3334ZM16 22.6667C18.5111 22.6667 20.8169 22.0054 22.9173 20.6827C25.0169 19.3609 26.6222 17.5778 27.7333 15.3334C26.6222 13.0889 25.0169 11.3054 22.9173 9.98271C20.8169 8.66093 18.5111 8.00004 16 8.00004C13.4889 8.00004 11.1831 8.66093 9.08266 9.98271C6.98311 11.3054 5.37777 13.0889 4.26666 15.3334C5.37777 17.5778 6.98311 19.3609 9.08266 20.6827C11.1831 22.0054 13.4889 22.6667 16 22.6667Z" fill="#00A3FF"/>
</svg>
