<svg width="32" height="32" viewBox="0 0 32 32" fill="none" xmlns="http://www.w3.org/2000/svg">
<path d="M6.66667 10.6667H18C18.6192 10.6785 19.2295 10.5176 19.7624 10.202C20.2953 9.88636 20.7298 9.4285 21.017 8.87977C21.3042 8.33105 21.4329 7.71315 21.3886 7.09538C21.3442 6.47761 21.1287 5.88441 20.766 5.38231C20.4034 4.88021 19.9081 4.48907 19.3356 4.25277C18.7631 4.01646 18.136 3.94433 17.5248 4.04447C16.9136 4.14461 16.3424 4.41305 15.8752 4.8197C15.4081 5.22634 15.0634 5.7551 14.88 6.34667M4 16H24.6667C25.2859 15.9882 25.8962 16.1491 26.4291 16.4647C26.962 16.7803 27.3964 17.2382 27.6837 17.7869C27.9709 18.3356 28.0995 18.9535 28.0552 19.5713C28.0109 20.1891 27.7953 20.7823 27.4327 21.2844C27.0701 21.7865 26.5747 22.1776 26.0022 22.4139C25.4297 22.6502 24.8027 22.7223 24.1915 22.6222C23.5803 22.5221 23.0091 22.2536 22.5419 21.847C22.0747 21.4403 21.7301 20.9116 21.5467 20.32M5.33333 21.3333H12.6667C13.2859 21.3215 13.8962 21.4824 14.4291 21.798C14.962 22.1136 15.3964 22.5715 15.6837 23.1202C15.9709 23.669 16.0996 24.2869 16.0552 24.9046C16.0109 25.5224 15.7953 26.1156 15.4327 26.6177C15.0701 27.1198 14.5747 27.5109 14.0022 27.7472C13.4297 27.9835 12.8027 28.0557 12.1915 27.9555C11.5803 27.8554 11.0091 27.587 10.5419 27.1803C10.0747 26.7737 9.73011 26.2449 9.54667 25.6533" stroke="#00A3FF" stroke-width="2.66667" stroke-linecap="round" stroke-linejoin="round"/>
</svg>
