<svg xmlns="http://www.w3.org/2000/svg" version="1.1" xmlns:xlink="http://www.w3.org/1999/xlink" xmlns:svgjs="http://svgjs.com/svgjs" width="1440" height="560" preserveAspectRatio="none" viewBox="0 0 1440 560"><g mask="url(&quot;#SvgjsMask1012&quot;)" fill="none"><rect width="1440" height="560" x="0" y="0" fill="url(#SvgjsLinearGradient1013)"></rect><path d="M840.527,274.935C863.85,275.63,884.909,261.947,896.873,241.915C909.169,221.328,912.5,195.518,900.285,174.882C888.263,154.573,864.127,146.815,840.527,146.728C816.746,146.641,791.503,153.625,780.005,174.441C768.776,194.771,777.731,218.824,789.713,238.72C801.214,257.817,818.244,274.271,840.527,274.935" fill="rgba(10, 203, 196, 0.4)" class="triangle-float3"></path><path d="M1519.4115046252602 495.979236683309L1480.8112414031707 405.0427152501301 1363.706590864447 508.4113707998537z" fill="rgba(10, 203, 196, 0.4)" class="triangle-float3"></path><path d="M118.26 137.44 a162.47 162.47 0 1 0 324.94 0 a162.47 162.47 0 1 0 -324.94 0z" fill="rgba(10, 203, 196, 0.4)" class="triangle-float1"></path><path d="M688.9560139950827 239.90103235633825L812.0724040825407 162.96937347297236 735.1407451991748 39.852983385514335 612.0243551117168 116.7846422688802z" fill="rgba(10, 203, 196, 0.4)" class="triangle-float2"></path><path d="M926.15 510.52 a120.85 120.85 0 1 0 241.7 0 a120.85 120.85 0 1 0 -241.7 0z" fill="rgba(10, 203, 196, 0.4)" class="triangle-float2"></path><path d="M859.973,128.458C877.006,127.425,891.141,117.218,900.254,102.791C910.179,87.079,917.753,67.633,908.617,51.45C899.379,35.086,878.701,29.893,859.973,31.438C843.806,32.771,832.306,44.855,823.489,58.471C813.484,73.921,801.723,91.932,810.231,108.253C819.097,125.262,840.827,129.62,859.973,128.458" fill="rgba(10, 203, 196, 0.4)" class="triangle-float3"></path><path d="M652.8910717806779 30.90548352583098L730.2110305939159 95.78463244866143 795.0901795167463 18.464673635423445 717.7702207035084-46.414475287406994z" fill="rgba(10, 203, 196, 0.4)" class="triangle-float3"></path><path d="M1030.9361869058487 239.22221247711929L922.3939327871859 333.5765544751515 1016.7482747852182 442.1188085938143 1125.2905289038808 347.7644665957821z" fill="rgba(10, 203, 196, 0.4)" class="triangle-float2"></path><path d="M1166.5 518.79 a103.65 103.65 0 1 0 207.3 0 a103.65 103.65 0 1 0 -207.3 0z" fill="rgba(10, 203, 196, 0.4)" class="triangle-float3"></path><path d="M332.922,370.061C377.582,367.886,420.956,349.888,443.368,311.197C465.832,272.417,462.233,224.522,439.651,185.811C417.253,147.416,377.367,122.569,332.922,121.87C287.23,121.152,245.137,144.055,220.219,182.362C192.606,224.812,176.056,279.531,202.125,322.947C227.693,365.529,283.312,372.477,332.922,370.061" fill="rgba(10, 203, 196, 0.4)" class="triangle-float2"></path><path d="M1028.89 471.46 a175.68 175.68 0 1 0 351.36 0 a175.68 175.68 0 1 0 -351.36 0z" fill="rgba(10, 203, 196, 0.4)" class="triangle-float3"></path><path d="M1027.9133324558934 555.3992846806676L1124.069175867472 468.98596464522313 1017.2154789203773 432.1932862042528z" fill="rgba(10, 203, 196, 0.4)" class="triangle-float1"></path><path d="M771.41 242.36 a160.27 160.27 0 1 0 320.54 0 a160.27 160.27 0 1 0 -320.54 0z" fill="rgba(10, 203, 196, 0.4)" class="triangle-float1"></path><path d="M306.166,237.566C344.577,237.037,374.105,207.151,392.443,173.395C409.834,141.382,414.019,103.375,396.384,71.496C378.195,38.615,343.718,18.807,306.166,17.429C265.92,15.953,223.685,29.459,203.707,64.428C183.85,99.185,195.284,141.382,215.67,175.831C235.602,209.513,267.032,238.105,306.166,237.566" fill="rgba(10, 203, 196, 0.4)" class="triangle-float3"></path><path d="M78.8485100389504 547.7091742925658L211.8262169563533 550.1570801492048 157.2439864196046 447.5028346411068z" fill="rgba(10, 203, 196, 0.4)" class="triangle-float3"></path><path d="M-20.55 164.62 a124.25 124.25 0 1 0 248.5 0 a124.25 124.25 0 1 0 -248.5 0z" fill="rgba(10, 203, 196, 0.4)" class="triangle-float3"></path><path d="M814.214210859664 529.6697020089125L840.6740413017473 611.1046865569606 949.5966029027777 530.6974486198118z" fill="rgba(10, 203, 196, 0.4)" class="triangle-float1"></path><path d="M1125.54 117.35 a178.38 178.38 0 1 0 356.76 0 a178.38 178.38 0 1 0 -356.76 0z" fill="rgba(10, 203, 196, 0.4)" class="triangle-float1"></path><path d="M868.8584860473038 14.38988554175674L949.8334582174998 71.08917146164941 1006.5327441373925-9.88580070854654 925.5577719671965-66.58508662843921z" fill="rgba(10, 203, 196, 0.4)" class="triangle-float3"></path><path d="M647.09 167.93 a181.95 181.95 0 1 0 363.9 0 a181.95 181.95 0 1 0 -363.9 0z" fill="rgba(10, 203, 196, 0.4)" class="triangle-float3"></path></g><defs><mask id="SvgjsMask1012"><rect width="1440" height="560" fill="#ffffff"></rect></mask><linearGradient x1="15.28%" y1="-39.29%" x2="84.72%" y2="139.29%" gradientUnits="userSpaceOnUse" id="SvgjsLinearGradient1013"><stop stop-color="#0e2a47" offset="0"></stop><stop stop-color="rgba(23, 24, 25, 1)" offset="1"></stop></linearGradient><style>
            @keyframes float1 {
                0%{transform: translate(0, 0)}
                50%{transform: translate(-10px, 0)}
                100%{transform: translate(0, 0)}
            }

            .triangle-float1 {
                animation: float1 5s infinite;
            }

            @keyframes float2 {
                0%{transform: translate(0, 0)}
                50%{transform: translate(-5px, -5px)}
                100%{transform: translate(0, 0)}
            }

            .triangle-float2 {
                animation: float2 4s infinite;
            }

            @keyframes float3 {
                0%{transform: translate(0, 0)}
                50%{transform: translate(0, -10px)}
                100%{transform: translate(0, 0)}
            }

            .triangle-float3 {
                animation: float3 6s infinite;
            }
        </style></defs></svg>